<svg xmlns="http://www.w3.org/2000/svg" width="1240" height="1240"><path d="M85.5 253.17c-19.66 3.722-37.791 22.22-41.424 42.264-1.516 8.362-1.516 634.77 0 643.132 3.717 20.507 21.851 38.641 42.358 42.358 8.386 1.521 1059.746 1.521 1068.132 0 20.507-3.717 38.641-21.851 42.358-42.358 1.516-8.362 1.516-634.77 0-643.132-3.717-20.507-21.851-38.641-42.358-42.358-7.734-1.402-1061.653-1.309-1069.066.094m803.25 32.082c-9.212 4.448-16.75 8.577-16.75 9.175 0 .599 4.325 5.36 9.612 10.581 17.196 16.982 23.657 28.388 23.786 41.992.137 14.561-6.375 25.62-26.209 44.5-32.168 30.622-40.874 40.617-49.011 56.268-8.789 16.907-11.361 30.03-8.788 44.849 3.902 22.479 15.848 41.212 41.739 65.454 21.327 19.97 27.679 26.659 32.972 34.722 12.904 19.658 12.977 37.329.236 57.033-2.022 3.127-14.301 16.222-27.358 29.174-13.028 12.925-26.026 26.65-28.883 30.5-6.784 9.142-15.626 27.169-17.657 36-2.066 8.983-2.058 23.075.018 32 2.041 8.771 9.715 24.792 16.334 34.099 6.758 9.502 18.684 21.973 36.074 37.725 15.784 14.297 24.579 24.26 28.846 32.676 2.438 4.807 2.789 6.633 2.789 14.5 0 8.281-.263 9.484-3.291 15.065-3.713 6.845-12.238 16.824-22.959 26.878-3.987 3.74-7.25 7.188-7.25 7.663 0 1.02 32.646 16.894 34.744 16.894 2.221 0 16.691-13.529 24.797-23.184 24.06-28.657 26.033-50.342 7.127-78.316-4.307-6.373-21.204-23.668-38.861-39.778C877.279 800.256 866 780.742 866 761.5c0-19.599 10.603-37.728 35.818-61.242 26.315-24.538 33.251-32.738 41.243-48.758 10.477-20.999 10.473-39.836-.013-61-7.469-15.074-15.283-24.057-43.293-49.767-13.516-12.405-22.679-23.81-28.308-35.233-8.24-16.721-8.21-29.797.104-46.369 5.375-10.712 12.649-19.723 26.339-32.631 24.118-22.739 33.894-33.077 39.804-42.096 18.079-27.591 17.024-51.757-3.466-79.404-6.064-8.181-25.677-28.05-27.559-27.917-.643.045-8.707 3.721-17.919 8.169m113.617-.261c-8.873 4.301-16.377 8.216-16.676 8.699-.298.484 4.711 6.284 11.133 12.89 17.423 17.922 22.877 28.592 21.956 42.952-.926 14.424-7.87 24.866-31.003 46.625-19.296 18.149-24.383 23.423-32.16 33.343-23.773 30.324-27.739 57.423-12.695 86.749 7.054 13.75 12.923 20.799 38.095 45.751 25.444 25.222 28.845 29.265 34.295 40.77 3.014 6.362 3.188 7.364 3.188 18.324v11.594l-4.708 9.406c-5.578 11.141-14.532 21.898-27.809 33.406-40.805 35.367-57.604 69.248-50.079 101 5.608 23.667 20.819 44.547 53.733 73.76 32.011 28.413 38.044 44.853 24.169 65.862-2.316 3.508-9.509 11.62-15.983 18.027-8.621 8.533-11.443 11.91-10.547 12.623 1.931 1.534 32.889 16.228 34.192 16.228 1.961 0 20.102-17.64 27.076-26.328 7.646-9.525 14.774-23.073 16.495-31.354 1.646-7.92.681-18.394-2.465-26.732-5.613-14.881-16.734-28.126-47.51-56.586-28.843-26.672-39.078-47.467-34.638-70.377 3.606-18.608 15.274-34.353 46.273-62.439 13.302-12.052 23.043-24.25 29.295-36.684 6.149-12.229 8.296-20.38 8.296-31.5 0-10.05-2.058-18.778-6.791-28.799-7.313-15.485-16.226-25.967-44.182-51.963-24.258-22.557-34.339-39.658-34.305-58.198.033-18.468 9.434-33.972 35.401-58.385 20.603-19.37 26.851-25.855 33.694-34.975 21.039-28.037 21.066-55.085.082-83.328-6.885-9.267-25.923-28.389-28.142-28.267-.851.047-8.807 3.605-17.68 7.906m112.883.082c-8.937 4.342-16.25 8.318-16.25 8.834 0 .517 4.674 5.587 10.387 11.266 16.605 16.51 23.163 28.41 23.049 41.827-.119 13.991-6.798 25.636-24.376 42.5-29.482 28.283-37.688 37.047-44.864 47.912-11.025 16.694-15.385 29.5-15.389 45.202-.003 11.534 2.671 21.621 8.961 33.799 8.372 16.211 18.688 28.168 46.859 54.316 29.009 26.925 35.769 47.714 23.451 72.116-4.742 9.395-13.72 19.794-29.279 33.918C1062.416 708.88 1048 733.389 1048 761.43c0 12.356 2.255 21.37 8.524 34.07 8.092 16.392 21.464 32.016 47.476 55.472 22.025 19.861 29.052 30.009 29.776 43.003.748 13.408-5.12 23.591-23.862 41.411-5.533 5.262-9.771 10.036-9.416 10.61.66 1.069 33.134 17.004 34.653 17.004 1.769 0 23.298-21.794 28.988-29.344 22.211-29.477 20.502-52.619-6.168-83.53-3.324-3.852-10.19-10.683-15.257-15.179-24.257-21.522-37.346-36.282-43.633-49.203-10.39-21.355-7.558-41.633 8.868-63.488 6.899-9.179 12.738-15.257 31.621-32.91 15.272-14.276 23.059-23.678 29.276-35.346 5.556-10.429 8.166-19.031 8.853-29.181 1.717-25.36-11.048-48.4-42.699-77.071-28.027-25.387-38.84-40.564-42.035-58.998-2.103-12.13 1.413-25.006 10.589-38.778 5.165-7.752 21.107-24.389 37.628-39.268 17.046-15.351 29.742-33.499 34.422-49.204 2.71-9.095 2.339-23.012-.859-32.19-5.178-14.859-14.511-28.163-30.557-43.56-5.015-4.812-9.922-8.71-10.903-8.661-.982.049-9.097 3.642-18.035 7.984" fill="undefined" fill-rule="evenodd"/></svg>